<svg xmlns="http://www.w3.org/2000/svg" width="20" height="25" viewBox="0 0 20 25"><g transform="translate(20) rotate(90)" fill="none"><path d="M10.8,2.714a2,2,0,0,1,3.392,0L23.088,16.94a2,2,0,0,1-1.7,3.06H3.608a2,2,0,0,1-1.7-3.06Z" stroke="none"/><path d="M 12.5 3.773590087890625 L 3.608499526977539 18 L 21.39150047302246 18 L 12.5 3.773590087890625 M 12.5 1.773591995239258 C 13.15216541290283 1.773591995239258 13.80432987213135 2.086925506591797 14.19600009918213 2.713590621948242 L 23.08749961853027 16.94000053405762 C 23.92005920410156 18.2721004486084 22.96237945556641 20 21.39150047302246 20 L 3.608499526977539 20 C 2.037620544433594 20 1.079940795898438 18.2721004486084 1.912500381469727 16.94000053405762 L 10.80399990081787 2.713590621948242 C 11.19567012786865 2.086925506591797 11.84783458709717 1.773591995239258 12.5 1.773591995239258 Z" stroke="none" fill="#fff"/></g></svg>