<svg width="198" height="59" viewBox="0 0 198 59" fill="none" xmlns="http://www.w3.org/2000/svg">
<path d="M190.19 58.5175H7.31469C3.29017 58.5175 0 55.2273 0 51.2028V7.31469C0 3.29017 3.29017 0 7.31469 0H190.19C194.215 0 197.505 3.29017 197.505 7.31469V51.2028C197.505 55.2273 194.211 58.5175 190.19 58.5175Z" fill="black"/>
<path d="M190.19 1.1692C193.579 1.1692 196.336 3.92606 196.336 7.31469V51.2028C196.336 54.5915 193.579 57.3483 190.19 57.3483H7.31469C3.92606 57.3483 1.1692 54.5915 1.1692 51.2028V7.31469C1.1692 3.92606 3.92606 1.1692 7.31469 1.1692H190.19V1.1692ZM190.19 0H7.31469C3.29017 0 0 3.29017 0 7.31469V51.2028C0 55.2273 3.29017 58.5175 7.31469 58.5175H190.19C194.215 58.5175 197.505 55.2273 197.505 51.2028V7.31469C197.505 3.29017 194.211 0 190.19 0Z" fill="#A6A6A6"/>
<path d="M99.8821 31.6404C96.4758 31.6404 93.7027 34.1608 93.7027 37.6332C93.7027 41.0818 96.4798 43.6259 99.8821 43.6259C103.289 43.6259 106.062 41.0858 106.062 37.6332C106.066 34.1608 103.289 31.6404 99.8821 31.6404ZM99.8821 41.2636C98.0145 41.2636 96.4067 39.7664 96.4067 37.6332C96.4067 35.4763 98.0145 34.0028 99.8821 34.0028C101.75 34.0028 103.358 35.4763 103.358 37.6332C103.358 39.7664 101.75 41.2636 99.8821 41.2636ZM86.3987 31.6404C82.9924 31.6404 80.2193 34.1608 80.2193 37.6332C80.2193 41.0818 82.9964 43.6259 86.3987 43.6259C89.8051 43.6259 92.5781 41.0858 92.5781 37.6332C92.5781 34.1608 89.8051 31.6404 86.3987 31.6404ZM86.3987 41.2636C84.5311 41.2636 82.9233 39.7664 82.9233 37.6332C82.9233 35.4763 84.5311 34.0028 86.3987 34.0028C88.2663 34.0028 89.8741 35.4763 89.8741 37.6332C89.8741 39.7664 88.2623 41.2636 86.3987 41.2636ZM70.3575 33.4774V36.0175H76.61C76.4232 37.4475 75.9319 38.4904 75.1889 39.2173C74.2795 40.1022 72.8544 41.0779 70.3616 41.0779C66.5126 41.0779 63.5041 38.0598 63.5041 34.3149C63.5041 30.5699 66.5126 27.5518 70.3616 27.5518C72.4362 27.5518 73.9547 28.3458 75.0753 29.369L76.9185 27.5755C75.3554 26.1218 73.2807 25.0117 70.3656 25.0117C65.0957 25.0117 60.6621 29.1873 60.6621 34.3188C60.6621 39.4464 65.0957 43.6259 70.3656 43.6259C73.2117 43.6259 75.3554 42.7173 77.0363 41.0147C78.7618 39.3358 79.2977 36.9735 79.2977 35.0694C79.2977 34.4808 79.253 33.9356 79.1556 33.4813H70.3575V33.4774ZM135.956 35.4526C135.444 34.1134 133.881 31.6404 130.686 31.6404C127.515 31.6404 124.876 34.0699 124.876 37.6332C124.876 40.991 127.486 43.6259 130.986 43.6259C133.808 43.6259 135.44 41.947 136.118 40.9712L134.019 39.6084C133.321 40.6078 132.362 41.2636 130.986 41.2636C129.61 41.2636 128.631 40.6513 128.002 39.4464L136.236 36.132L135.956 35.4526ZM127.559 37.4514C127.49 35.1365 129.403 33.9554 130.779 33.9554C131.851 33.9554 132.76 34.4768 133.065 35.2274L127.559 37.4514ZM120.864 43.2585H123.568V25.6477H120.864V43.2585ZM116.435 32.9796H116.342C115.737 32.2765 114.567 31.6404 113.098 31.6404C110.02 31.6404 107.194 34.2714 107.194 37.6529C107.194 41.0107 110.016 43.6219 113.098 43.6219C114.567 43.6219 115.733 42.9859 116.342 42.2591H116.435V43.1202C116.435 45.4115 115.176 46.6361 113.146 46.6361C111.49 46.6361 110.463 45.4786 110.044 44.5029L107.69 45.4549C108.368 47.043 110.162 48.9944 113.146 48.9944C116.317 48.9944 119.001 47.1773 119.001 42.7529V32.0039H116.435V32.9796ZM113.333 41.2636C111.465 41.2636 109.902 39.7427 109.902 37.6569C109.902 35.5474 111.465 34.0028 113.333 34.0028C115.176 34.0028 116.622 35.5474 116.622 37.6569C116.622 39.7427 115.172 41.2636 113.333 41.2636ZM148.631 25.6477H142.159V43.2585H144.859V36.5863H148.631C151.627 36.5863 154.571 34.4768 154.571 31.115C154.571 27.7533 151.627 25.6477 148.631 25.6477ZM148.7 34.1371H144.859V28.1009H148.7C150.722 28.1009 151.867 29.7285 151.867 31.119C151.867 32.4819 150.722 34.1371 148.7 34.1371ZM165.399 31.6088C163.442 31.6088 161.416 32.4463 160.58 34.307L162.979 35.2827C163.491 34.307 164.445 33.9909 165.448 33.9909C166.844 33.9909 168.265 34.8047 168.29 36.2584V36.4402C167.803 36.1676 166.751 35.7607 165.472 35.7607C162.886 35.7607 160.255 37.1433 160.255 39.7269C160.255 42.0813 162.374 43.6022 164.749 43.6022C166.564 43.6022 167.567 42.8082 168.196 41.8798H168.29V43.2388H170.896V36.4797C170.892 33.351 168.497 31.6088 165.399 31.6088ZM165.07 41.2596C164.185 41.2596 162.951 40.829 162.951 39.7624C162.951 38.4035 164.49 37.882 165.813 37.882C166.999 37.882 167.559 38.1309 168.282 38.4706C168.075 40.1061 166.633 41.2596 165.07 41.2596ZM180.393 31.992L177.295 39.6281H177.202L173.99 31.992H171.079L175.898 42.662L173.15 48.5994H175.967L183.397 31.992H180.393ZM156.061 43.2585H158.761V25.6477H156.061V43.2585Z" fill="white"/>
<path d="M15.2648 11.0271C14.8381 11.4783 14.5879 12.1758 14.5879 13.0824V45.4385C14.5879 46.3452 14.8381 47.0426 15.2648 47.4939L15.3715 47.6005L33.4961 29.4758V29.2625V29.0451L15.3756 10.9204L15.2648 11.0271Z" fill="url(#paint0_linear)"/>
<path d="M39.5388 35.5193L33.5 29.4764V29.263V29.0456L39.5429 23.0027L39.6783 23.0806L46.8371 27.1462C48.8801 28.3072 48.8801 30.2066 46.8371 31.3717L39.6783 35.4372L39.5388 35.5193Z" fill="url(#paint1_linear)"/>
<path d="M39.6792 35.4408L33.5009 29.2625L15.2695 47.4938C15.9423 48.2076 17.0541 48.2938 18.3095 47.584L39.6792 35.4408Z" fill="url(#paint2_linear)"/>
<path d="M39.6794 23.0805L18.3055 10.9372C17.0502 10.2234 15.9384 10.3136 15.2656 11.0275L33.497 29.2588L39.6794 23.0805Z" fill="url(#paint3_linear)"/>
<path opacity="0.2" d="M39.543 35.3059L18.3087 47.3713C17.119 48.0482 16.0605 48.003 15.3754 47.3877L15.2646 47.4984L15.3713 47.6051C16.0523 48.2205 17.1149 48.2656 18.3046 47.5887L39.6784 35.4454L39.543 35.3059Z" fill="black"/>
<path opacity="0.12" d="M15.2648 47.2807C14.8381 46.8294 14.5879 46.132 14.5879 45.2253V45.4387C14.5879 46.3453 14.8381 47.0427 15.2648 47.494L15.3756 47.3832L15.2648 47.2807Z" fill="black"/>
<path opacity="0.12" d="M46.8381 31.159L39.5439 35.3024L39.6793 35.4378L46.8381 31.3723C47.8596 30.7897 48.3724 30.0267 48.3724 29.2595C48.2863 29.9528 47.7653 30.6338 46.8381 31.159Z" fill="black"/>
<path opacity="0.25" d="M18.3047 11.1544L46.8332 27.3632C47.7604 27.8883 48.2814 28.5694 48.3676 29.2627C48.3676 28.4955 47.8548 27.7325 46.8332 27.1499L18.3047 10.937C16.2617 9.77598 14.5879 10.7401 14.5879 13.0826V13.2959C14.5879 10.9575 16.2617 9.98931 18.3047 11.1544Z" fill="white"/>
<path d="M60.3916 19.0207V10.2415H63.0746C64.4243 10.2415 65.5033 10.6476 66.3115 11.4599C67.1196 12.2722 67.5258 13.3306 67.5258 14.627C67.5258 15.9275 67.1196 16.9818 66.3115 17.7941C65.5033 18.6064 64.4243 19.0125 63.0746 19.0125H60.3916V19.0207ZM61.5198 17.9418H63.0787C64.092 17.9418 64.8961 17.6505 65.4869 17.0721C66.0817 16.4936 66.3771 15.6772 66.3771 14.6311C66.3771 13.5932 66.0817 12.7809 65.4869 12.1983C64.892 11.6158 64.092 11.3204 63.0787 11.3204H61.5198V17.9418Z" fill="white" stroke="white" stroke-width="0.2" stroke-miterlimit="10"/>
<path d="M69.1104 19.0193V10.24H70.2385V19.0193H69.1104Z" fill="white" stroke="white" stroke-width="0.2" stroke-miterlimit="10"/>
<path d="M74.7218 19.2159C74.0859 19.2159 73.4623 19.0067 72.851 18.5923C72.2398 18.1739 71.8418 17.5913 71.6572 16.8406L72.6869 16.4221C72.81 16.9062 73.0603 17.3123 73.4418 17.6405C73.8233 17.9728 74.25 18.1369 74.7218 18.1369C75.21 18.1369 75.6325 18.0098 75.9771 17.7513C76.3258 17.4928 76.4981 17.1441 76.4981 16.7011C76.4981 16.2129 76.3258 15.8313 75.9771 15.5688C75.6284 15.3021 75.0787 15.056 74.3279 14.8262C73.5526 14.5801 72.9618 14.2642 72.5639 13.8745C72.1618 13.4847 71.9608 12.9883 71.9608 12.3853C71.9608 11.7576 72.2111 11.2079 72.7075 10.7443C73.208 10.2766 73.8561 10.0469 74.6561 10.0469C75.3987 10.0469 76.0058 10.2315 76.4694 10.6048C76.9371 10.9781 77.2366 11.3843 77.3761 11.8232L76.3463 12.2499C76.2725 11.9709 76.092 11.7166 75.8007 11.4786C75.5094 11.2407 75.1361 11.1217 74.6766 11.1217C74.2418 11.1217 73.8726 11.2407 73.569 11.4827C73.2613 11.7248 73.1095 12.0243 73.1095 12.3853C73.1095 12.7135 73.249 12.9883 73.5321 13.214C73.8151 13.4396 74.2295 13.6406 74.7751 13.8211C75.21 13.9606 75.571 14.096 75.8623 14.2273C76.1535 14.3586 76.4448 14.5309 76.7443 14.7483C77.0438 14.9657 77.2653 15.2365 77.4171 15.5565C77.5689 15.8806 77.6427 16.2539 77.6427 16.6765C77.6427 17.1031 77.5566 17.4805 77.3802 17.8169C77.2038 18.1533 76.9699 18.4159 76.6786 18.6128C76.3874 18.8097 76.0756 18.9574 75.7433 19.06C75.4192 19.1625 75.0746 19.2159 74.7218 19.2159Z" fill="white" stroke="white" stroke-width="0.2" stroke-miterlimit="10"/>
<path d="M80.3997 19.0193H79.2715V10.24H82.2622C83.0047 10.24 83.6488 10.4861 84.1903 10.9825C84.736 11.4748 85.0067 12.1025 85.0067 12.8533C85.0067 13.604 84.736 14.2276 84.1903 14.724C83.6488 15.2204 83.0047 15.4665 82.2622 15.4665H80.3997V19.0193ZM80.3997 14.3835H82.2868C82.7627 14.3835 83.1401 14.2235 83.4273 13.9076C83.7145 13.5876 83.8539 13.2389 83.8539 12.8533C83.8539 12.4676 83.7104 12.1189 83.4273 11.7989C83.1401 11.4789 82.7627 11.3189 82.2868 11.3189H80.3997V14.3835Z" fill="white" stroke="white" stroke-width="0.2" stroke-miterlimit="10"/>
<path d="M93.6089 17.8826C92.7474 18.7687 91.6726 19.2118 90.3885 19.2118C89.1044 19.2118 88.0337 18.7687 87.1722 17.8826C86.3106 16.9964 85.8799 15.9093 85.8799 14.6293C85.8799 13.3494 86.3106 12.2622 87.1722 11.3761C88.0337 10.4899 89.1085 10.0469 90.3885 10.0469C91.6644 10.0469 92.7351 10.494 93.6007 11.3843C94.4663 12.2745 94.9012 13.3576 94.9012 14.6334C94.9012 15.9134 94.4704 16.9964 93.6089 17.8826ZM88.005 17.1482C88.6532 17.8046 89.449 18.1328 90.3885 18.1328C91.328 18.1328 92.1238 17.8046 92.772 17.1482C93.4202 16.4918 93.7484 15.6508 93.7484 14.6293C93.7484 13.6078 93.4243 12.7668 92.772 12.1104C92.1238 11.454 91.328 11.1258 90.3885 11.1258C89.449 11.1258 88.6532 11.454 88.005 12.1104C87.3568 12.7668 87.0286 13.6078 87.0286 14.6293C87.0327 15.6508 87.3568 16.4918 88.005 17.1482Z" fill="white" stroke="white" stroke-width="0.2" stroke-miterlimit="10"/>
<path d="M96.4854 19.0193V10.24H97.8597L102.126 17.0665H102.175L102.126 15.3763V10.24H103.254V19.0193H102.077L97.6135 11.8605H97.5643L97.6135 13.5507V19.0193H96.4854Z" fill="white" stroke="white" stroke-width="0.2" stroke-miterlimit="10"/>
<path d="M105.265 19.0193V10.24H106.393V19.0193H105.265Z" fill="white" stroke="white" stroke-width="0.2" stroke-miterlimit="10"/>
<path d="M108.398 19.0193V10.24H111.574C112.263 10.24 112.854 10.4656 113.358 10.921C113.863 11.3764 114.113 11.9466 114.113 12.6317C114.113 13.0502 114.006 13.4153 113.789 13.7353C113.572 14.0553 113.284 14.2973 112.923 14.4573V14.5066C113.358 14.6542 113.711 14.9086 113.99 15.2655C114.269 15.6265 114.409 16.0409 114.409 16.5168C114.409 17.2347 114.146 17.8336 113.617 18.3054C113.092 18.7813 112.468 19.0152 111.746 19.0152H108.398V19.0193ZM109.527 14.0061H111.574C112 14.0061 112.341 13.8666 112.599 13.5835C112.858 13.3004 112.985 12.9927 112.985 12.6604C112.985 12.324 112.862 12.0164 112.612 11.7415C112.361 11.4625 112.033 11.323 111.627 11.323H109.531V14.0061H109.527ZM109.527 17.9403H111.795C112.23 17.9403 112.579 17.7885 112.85 17.4849C113.12 17.1855 113.256 16.8532 113.256 16.4921C113.256 16.1311 113.116 15.8029 112.837 15.5076C112.558 15.2081 112.197 15.0604 111.746 15.0604H109.527V17.9403V17.9403Z" fill="white" stroke="white" stroke-width="0.2" stroke-miterlimit="10"/>
<path d="M115.927 19.0193V10.24H117.055V17.9403H120.854V19.0193H115.927V19.0193Z" fill="white" stroke="white" stroke-width="0.2" stroke-miterlimit="10"/>
<path d="M127.405 11.3186H123.409V14.1001H127.015V15.1544H123.409V17.9359H127.405V19.0149H122.281V10.2356H127.405V11.3186Z" fill="white" stroke="white" stroke-width="0.2" stroke-miterlimit="10"/>
<path d="M137.235 11.3186H133.24V14.1001H136.846V15.1544H133.24V17.9359H137.235V19.0149H132.111V10.2356H137.235V11.3186Z" fill="white" stroke="white" stroke-width="0.2" stroke-miterlimit="10"/>
<path d="M138.999 19.0193V10.24H140.373L144.64 17.0665H144.689L144.64 15.3763V10.24H145.768V19.0193H144.591L140.127 11.8605H140.078L140.127 13.5507V19.0193H138.999Z" fill="white" stroke="white" stroke-width="0.2" stroke-miterlimit="10"/>
<defs>
<linearGradient id="paint0_linear" x1="31.8921" y1="12.742" x2="7.3397" y2="37.2944" gradientUnits="userSpaceOnUse">
<stop stop-color="#00A0FF"/>
<stop offset="0.00657445" stop-color="#00A1FF"/>
<stop offset="0.2601" stop-color="#00BEFF"/>
<stop offset="0.5122" stop-color="#00D2FF"/>
<stop offset="0.7604" stop-color="#00DFFF"/>
<stop offset="1" stop-color="#00E3FF"/>
</linearGradient>
<linearGradient id="paint1_linear" x1="49.4984" y1="29.2622" x2="14.0987" y2="29.2622" gradientUnits="userSpaceOnUse">
<stop stop-color="#FFE000"/>
<stop offset="0.4087" stop-color="#FFBD00"/>
<stop offset="0.7754" stop-color="#FFA500"/>
<stop offset="1" stop-color="#FF9C00"/>
</linearGradient>
<linearGradient id="paint2_linear" x1="36.3216" y1="32.6186" x2="3.02647" y2="65.9137" gradientUnits="userSpaceOnUse">
<stop stop-color="#FF3A44"/>
<stop offset="1" stop-color="#C31162"/>
</linearGradient>
<linearGradient id="paint3_linear" x1="10.6761" y1="0.257919" x2="25.5438" y2="15.1256" gradientUnits="userSpaceOnUse">
<stop stop-color="#32A071"/>
<stop offset="0.0685" stop-color="#2DA771"/>
<stop offset="0.4762" stop-color="#15CF74"/>
<stop offset="0.8009" stop-color="#06E775"/>
<stop offset="1" stop-color="#00F076"/>
</linearGradient>
</defs>
</svg>
