<svg width="198" height="67" viewBox="0 0 198 67" fill="none" xmlns="http://www.w3.org/2000/svg">
<path d="M181.778 0H15.7363C15.13 0 14.533 0 13.9313 0.00464843C13.4268 0.00929686 12.9269 0.0185937 12.4132 0.0278906C11.3163 0.0557811 10.2008 0.125508 9.10393 0.320742C7.99776 0.515976 6.97027 0.846014 5.96592 1.36199C4.98009 1.86867 4.07293 2.52875 3.29537 3.31433C2.50856 4.09527 1.85133 5.00636 1.35147 5.99647C0.837728 7.00518 0.513745 8.04178 0.319355 9.15276C0.120337 10.2498 0.0509117 11.3608 0.0231417 12.4717C0.00925667 12.9784 0.00925666 13.4897 0 13.9964C0 14.5961 0 15.2004 0 15.8047V50.4959C0 51.1095 0 51.7091 0 52.3088C0.00925666 52.8247 0.00925667 53.3221 0.0231417 53.8381C0.0509117 54.9491 0.120337 56.0601 0.319355 57.1571C0.513745 58.2681 0.837728 59.3093 1.35147 60.3134C1.85133 61.2988 2.50856 62.2099 3.29537 62.9909C4.07756 63.7811 4.98009 64.4412 5.96592 64.9432C6.97027 65.4592 7.99776 65.7892 9.10393 65.9891C10.2008 66.189 11.3116 66.2494 12.4132 66.2819C12.9223 66.2912 13.4268 66.3005 13.9313 66.3005C14.533 66.3052 15.1346 66.3052 15.7363 66.3052H181.778C182.37 66.3052 182.972 66.3052 183.569 66.3005C184.073 66.3005 184.587 66.2959 185.092 66.2819C186.198 66.2494 187.309 66.1843 188.392 65.9891C189.498 65.7892 190.525 65.4592 191.539 64.9432C192.525 64.4412 193.427 63.7811 194.209 62.9909C194.996 62.2099 195.649 61.3035 196.158 60.3134C196.662 59.3093 196.991 58.2681 197.181 57.1571C197.384 56.0601 197.449 54.9491 197.486 53.8381C197.491 53.3221 197.491 52.8247 197.491 52.3088C197.505 51.7045 197.505 51.1095 197.505 50.4959V15.8093C197.505 15.2004 197.505 14.6007 197.491 14.0011C197.491 13.4944 197.491 12.9831 197.486 12.4764C197.449 11.3654 197.384 10.2544 197.181 9.15741C196.996 8.04643 196.667 7.00983 196.158 6.00112C195.649 5.01101 194.996 4.09991 194.209 3.31433C193.427 2.52875 192.525 1.86867 191.539 1.36199C190.525 0.850663 189.493 0.515976 188.392 0.320742C187.304 0.125508 186.198 0.0557811 185.092 0.0278906C184.587 0.0185937 184.073 0.00929686 183.569 0.00464843C182.976 0 182.375 0 181.778 0Z" fill="#A6A6A6"/>
<path d="M13.9113 64.8943C13.4067 64.8943 12.9159 64.8897 12.4205 64.8757C11.4992 64.8478 10.402 64.7966 9.33254 64.6058C8.32327 64.4243 7.42974 64.1265 6.59639 63.6984C5.73527 63.2609 4.96211 62.6932 4.2908 62.0091C3.60561 61.3344 3.04542 60.5619 2.60559 59.6917C2.17966 58.854 1.88336 57.9559 1.70743 56.9414C1.50373 55.8246 1.4528 54.6938 1.43428 53.8282C1.42502 53.4792 1.41113 52.3112 1.41113 52.3112V13.9799C1.41113 13.9799 1.42502 12.8305 1.43428 12.4954C1.45743 11.6252 1.50836 10.4944 1.70743 9.38682C1.88336 8.3677 2.17503 7.46956 2.60559 6.62727C3.04542 5.75706 3.60561 4.97992 4.28154 4.30515C4.96211 3.61643 5.7399 3.04869 6.59639 2.60661C7.44363 2.17383 8.33716 1.876 9.32791 1.70382C10.439 1.50372 11.5687 1.45253 12.4252 1.42926L13.9159 1.41064H183.58L185.09 1.43391C185.937 1.45718 187.062 1.50372 188.159 1.70382C189.155 1.88065 190.053 2.17848 190.918 2.61126C191.766 3.04869 192.539 3.61643 193.215 4.29584C193.891 4.97061 194.456 5.75241 194.905 6.62727C195.331 7.47422 195.622 8.37235 195.789 9.36356C195.979 10.4106 196.039 11.4856 196.076 12.4954C196.081 12.9654 196.081 13.468 196.081 13.9706C196.094 14.5941 196.094 15.1851 196.094 15.7808V50.5102C196.094 51.1152 196.094 51.7015 196.081 52.2925C196.081 52.8323 196.081 53.3256 196.076 53.8375C196.044 54.8148 195.983 55.8897 195.794 56.9135C195.622 57.9326 195.331 58.8308 194.9 59.687C194.456 60.5479 193.891 61.3297 193.224 61.9859C192.543 62.6793 191.77 63.247 190.914 63.6844C190.057 64.1219 189.182 64.4104 188.159 64.5965C187.104 64.7873 186.006 64.8432 185.071 64.8664C184.59 64.8757 184.08 64.885 183.59 64.885L181.798 64.8897L13.9113 64.8943Z" fill="black"/>
<path d="M40.8908 33.5557C40.8491 29.0084 44.6131 26.7973 44.7846 26.6906C42.6523 23.5803 39.3472 23.1584 38.1884 23.126C35.4117 22.8339 32.7232 24.7855 31.3047 24.7855C29.8631 24.7855 27.6845 23.1538 25.3389 23.2001C22.3212 23.2465 19.4936 24.9941 17.9454 27.7104C14.7469 33.2452 17.1342 41.3804 20.1936 45.8536C21.7279 48.0462 23.5172 50.4937 25.8581 50.4056C28.1526 50.3083 29.0056 48.9454 31.7729 48.9454C34.5171 48.9454 35.319 50.4056 37.7109 50.3546C40.1724 50.3129 41.7206 48.1528 43.1993 45.9417C44.97 43.4292 45.6793 40.9586 45.7071 40.8288C45.6607 40.8102 40.9372 39.0117 40.8908 33.5557Z" fill="white"/>
<path d="M36.3763 20.1871C37.6094 18.6435 38.453 16.5483 38.2166 14.416C36.432 14.4948 34.1977 15.649 32.9137 17.1602C31.778 18.4906 30.7628 20.6692 31.0224 22.7181C33.0296 22.8618 35.0877 21.7029 36.3763 20.1871Z" fill="white"/>
<path d="M69.8718 44.8607H62.0472L60.1698 50.4093H56.8555L64.2675 29.8835H67.7117L75.1238 50.4093H71.7538L69.8718 44.8607ZM62.8584 42.3019H69.0606L66.0012 33.2952H65.9178L62.8584 42.3019Z" fill="white"/>
<path d="M91.1296 42.9283C91.1296 47.5776 88.6404 50.5675 84.8857 50.5675C82.7533 50.5675 81.0614 49.6126 80.176 47.9485H80.1065V55.3606H77.0332V35.4467H80.0045V37.9359H80.0602C80.9131 36.3274 82.7348 35.2891 84.8254 35.2891C88.6218 35.2891 91.1296 38.2928 91.1296 42.9283ZM87.9682 42.9283C87.9682 39.8967 86.4014 37.9081 84.0142 37.9081C81.6687 37.9081 80.088 39.9431 80.088 42.9283C80.088 45.946 81.6687 47.9624 84.0142 47.9624C86.4061 47.9624 87.9682 45.9877 87.9682 42.9283Z" fill="white"/>
<path d="M107.599 42.9283C107.599 47.5776 105.11 50.5675 101.355 50.5675C99.2231 50.5675 97.5311 49.6126 96.6458 47.9485H96.5762V55.3606H93.5029V35.4467H96.4743V37.9359H96.5299C97.3828 36.3274 99.2045 35.2891 101.295 35.2891C105.096 35.2891 107.599 38.2928 107.599 42.9283ZM104.443 42.9283C104.443 39.8967 102.876 37.9081 100.489 37.9081C98.143 37.9081 96.5623 39.9431 96.5623 42.9283C96.5623 45.946 98.143 47.9624 100.489 47.9624C102.876 47.9624 104.443 45.9877 104.443 42.9283Z" fill="white"/>
<path d="M118.488 44.6899C118.715 46.7249 120.695 48.0645 123.397 48.0645C125.988 48.0645 127.847 46.7295 127.847 44.8939C127.847 43.2993 126.725 42.3444 124.065 41.6908L121.404 41.0511C117.635 40.1425 115.883 38.3764 115.883 35.5164C115.883 31.9749 118.97 29.5413 123.351 29.5413C127.69 29.5413 130.661 31.9749 130.763 35.5164H127.662C127.476 33.4675 125.784 32.2298 123.309 32.2298C120.834 32.2298 119.142 33.4814 119.142 35.3031C119.142 36.754 120.222 37.6069 122.869 38.2605L125.131 38.8168C129.345 39.8134 131.092 41.5054 131.092 44.5091C131.092 48.3473 128.033 50.7531 123.165 50.7531C118.613 50.7531 115.54 48.4029 115.341 44.6899H118.488Z" fill="white"/>
<path d="M137.721 31.9048V35.4463H140.567V37.8799H137.721V46.131C137.721 47.415 138.291 48.0083 139.543 48.0083C139.858 48.0083 140.354 47.9666 140.553 47.9388V50.3585C140.215 50.4419 139.529 50.5022 138.848 50.5022C135.816 50.5022 134.634 49.3619 134.634 46.4601V37.8752H132.46V35.4416H134.634V31.9001H137.721V31.9048Z" fill="white"/>
<path d="M142.217 42.9283C142.217 38.2186 144.989 35.2612 149.314 35.2612C153.652 35.2612 156.415 38.2186 156.415 42.9283C156.415 47.6518 153.671 50.5953 149.314 50.5953C144.961 50.5953 142.217 47.6518 142.217 42.9283ZM153.282 42.9283C153.282 39.6974 151.803 37.7922 149.314 37.7922C146.824 37.7922 145.346 39.7113 145.346 42.9283C145.346 46.1731 146.824 48.0643 149.314 48.0643C151.803 48.0643 153.282 46.1731 153.282 42.9283Z" fill="white"/>
<path d="M158.947 35.4464H161.877V37.9959H161.946C162.414 36.304 163.782 35.2935 165.548 35.2935C165.988 35.2935 166.359 35.3537 166.6 35.4093V38.2833C166.359 38.1813 165.817 38.0979 165.219 38.0979C163.239 38.0979 162.016 39.4375 162.016 41.542V50.4189H158.942V35.4464H158.947Z" fill="white"/>
<path d="M180.765 46.0157C180.352 48.7321 177.706 50.5955 174.322 50.5955C169.969 50.5955 167.267 47.6798 167.267 42.998C167.267 38.3023 169.983 35.2568 174.192 35.2568C178.331 35.2568 180.937 38.103 180.937 42.6411V43.6934H170.368V43.8788C170.368 46.4375 171.976 48.1202 174.396 48.1202C176.102 48.1202 177.441 47.309 177.854 46.0157H180.765V46.0157ZM170.377 41.5471H177.859C177.789 39.2572 176.32 37.7507 174.187 37.7507C172.069 37.7507 170.535 39.285 170.377 41.5471Z" fill="white"/>
<path d="M58.5098 19.367C58.5098 16.1685 60.211 14.1938 62.9505 14.1938C65.1246 14.1938 66.8072 15.603 67.0529 17.6102H65.5278C65.2404 16.4003 64.2485 15.6216 62.9505 15.6216C61.1798 15.6216 60.0719 17.0632 60.0719 19.367C60.0719 21.6662 61.1798 23.1078 62.9552 23.1078C64.2624 23.1078 65.2543 22.4032 65.5232 21.2907H67.0483C66.7748 23.2376 65.1524 24.5355 62.9505 24.5355C60.2156 24.5355 58.5098 22.5608 58.5098 19.367Z" fill="white"/>
<path d="M68.7305 20.572C68.7305 18.1709 70.0701 16.7107 72.2441 16.7107C74.4135 16.7107 75.7532 18.1755 75.7532 20.572C75.7532 22.9825 74.4182 24.4426 72.2441 24.4426C70.0608 24.438 68.7305 22.9825 68.7305 20.572ZM74.2374 20.572C74.2374 18.9589 73.5143 18.0133 72.2395 18.0133C70.9648 18.0133 70.2463 18.9589 70.2463 20.572C70.2463 22.1991 70.9648 23.1354 72.2395 23.1354C73.5143 23.1354 74.2374 22.1898 74.2374 20.572Z" fill="white"/>
<path d="M77.7236 16.8544H79.1374V18.0364H79.2487C79.6103 17.2113 80.3519 16.7107 81.4691 16.7107C83.1286 16.7107 84.0464 17.7073 84.0464 19.4781V24.2989H82.5769V19.8489C82.5769 18.6529 82.0578 18.0596 80.9684 18.0596C79.8791 18.0596 79.1931 18.7827 79.1931 19.9462V24.2989H77.7236V16.8544V16.8544Z" fill="white"/>
<path d="M89.034 16.7107C90.7074 16.7107 91.8014 17.4894 91.9451 18.8013H90.5359C90.4014 18.2543 89.8637 17.9066 89.034 17.9066C88.2135 17.9066 87.5924 18.296 87.5924 18.8754C87.5924 19.3205 87.9678 19.5986 88.7744 19.784L90.0121 20.0714C91.4259 20.4005 92.0934 21.0078 92.0934 22.1017C92.0934 23.5016 90.7862 24.438 89.0108 24.438C87.2401 24.438 86.0858 23.6361 85.9561 22.3196H87.4255C87.6109 22.8944 88.1579 23.2467 89.0433 23.2467C89.9564 23.2467 90.61 22.8388 90.61 22.2408C90.61 21.7958 90.2624 21.5084 89.5161 21.3322L88.2181 21.0309C86.8043 20.6972 86.1461 20.0621 86.1461 18.9543C86.1461 17.6378 87.356 16.7107 89.034 16.7107Z" fill="white"/>
<path d="M93.9482 15.6075L95.6634 13.2573H97.3878L95.4687 15.6075H93.9482ZM94.1012 16.8544H95.566V24.299H94.1012V16.8544Z" fill="white"/>
<path d="M97.8514 25.0411H99.3532C99.4784 25.5788 100.1 25.9311 101.092 25.9311C102.315 25.9311 103.038 25.3517 103.038 24.3643V22.9366H102.927C102.473 23.7432 101.657 24.1882 100.628 24.1882C98.7275 24.1882 97.5547 22.7187 97.5547 20.4891C97.5547 18.2177 98.7414 16.7297 100.647 16.7297C101.671 16.7297 102.566 17.235 102.983 18.0416H103.099V16.8549H104.508V24.3597C104.508 26.0609 103.173 27.141 101.068 27.141C99.2095 27.141 98.0043 26.3066 97.8514 25.0411ZM103.066 20.4798C103.066 18.9965 102.301 18.0462 101.05 18.0462C99.7843 18.0462 99.0751 18.9965 99.0751 20.4798C99.0751 21.9632 99.7843 22.9134 101.05 22.9134C102.306 22.9134 103.066 21.9724 103.066 20.4798Z" fill="white"/>
<path d="M113.125 24.2939H111.711V23.1119H111.595C111.233 23.9601 110.473 24.4376 109.347 24.4376C107.701 24.4376 106.783 23.4317 106.783 21.6841V16.854H108.253V21.304C108.253 22.5046 108.735 23.0794 109.815 23.0794C111.006 23.0794 111.655 22.3748 111.655 21.2067V16.854H113.125V24.2939V24.2939Z" fill="white"/>
<path d="M121.756 22.2871C121.422 23.6221 120.231 24.4426 118.529 24.4426C116.397 24.4426 115.09 22.9778 115.09 20.5998C115.09 18.2218 116.425 16.7107 118.52 16.7107C120.592 16.7107 121.839 18.1245 121.839 20.4654V20.9799H116.582V21.0634C116.629 22.3706 117.389 23.1957 118.566 23.1957C119.456 23.1957 120.064 22.8758 120.337 22.2918H121.756V22.2871ZM116.592 19.886H120.351C120.319 18.7178 119.605 17.9576 118.52 17.9576C117.431 17.9576 116.671 18.7271 116.592 19.886Z" fill="white"/>
<path d="M123.888 13.948H125.357V24.299H123.888V13.948Z" fill="white"/>
<path d="M127.397 20.572C127.397 18.1709 128.737 16.7107 130.911 16.7107C133.081 16.7107 134.42 18.1755 134.42 20.572C134.42 22.9825 133.085 24.4426 130.911 24.4426C128.732 24.438 127.397 22.9825 127.397 20.572ZM132.909 20.572C132.909 18.9589 132.186 18.0133 130.911 18.0133C129.636 18.0133 128.918 18.9589 128.918 20.572C128.918 22.1991 129.636 23.1354 130.911 23.1354C132.181 23.1354 132.909 22.1898 132.909 20.572Z" fill="white"/>
<path d="M146.722 22.2871C146.389 23.6221 145.197 24.4426 143.496 24.4426C141.364 24.4426 140.057 22.9778 140.057 20.5998C140.057 18.2218 141.392 16.7107 143.487 16.7107C145.559 16.7107 146.806 18.1245 146.806 20.4654V20.9799H141.549V21.0634C141.596 22.3706 142.356 23.1957 143.533 23.1957C144.423 23.1957 145.03 22.8758 145.304 22.2918H146.722V22.2871ZM141.554 19.886H145.313C145.281 18.7178 144.567 17.9576 143.482 17.9576C142.398 17.9576 141.637 18.7271 141.554 19.886Z" fill="white"/>
<path d="M148.785 16.8544H150.199V18.0364H150.31C150.672 17.2113 151.413 16.7107 152.531 16.7107C154.19 16.7107 155.108 17.7073 155.108 19.4781V24.2989H153.638V19.8489C153.638 18.6529 153.119 18.0596 152.03 18.0596C150.941 18.0596 150.255 18.7827 150.255 19.9462V24.2989H148.785V16.8544Z" fill="white"/>
<path d="M167.712 22.2871C167.378 23.6221 166.187 24.4426 164.485 24.4426C162.353 24.4426 161.046 22.9778 161.046 20.5998C161.046 18.2218 162.381 16.7107 164.476 16.7107C166.548 16.7107 167.795 18.1245 167.795 20.4654V20.9799H162.539V21.0634C162.585 22.3706 163.345 23.1957 164.522 23.1957C165.412 23.1957 166.02 22.8758 166.293 22.2918H167.712V22.2871ZM162.543 19.886H166.302C166.27 18.7178 165.556 17.9576 164.471 17.9576C163.382 17.9576 162.627 18.7271 162.543 19.886Z" fill="white"/>
<path d="M169.839 13.948H171.308V24.299H169.839V13.948Z" fill="white"/>
</svg>
