<?xml version="1.0" standalone="no"?>
<!DOCTYPE svg PUBLIC "-//W3C//DTD SVG 20010904//EN"
 "http://www.w3.org/TR/2001/REC-SVG-20010904/DTD/svg10.dtd">
<svg version="1.0" xmlns="http://www.w3.org/2000/svg"
 width="260.000000pt" height="260.000000pt" viewBox="0 0 260.000000 260.000000"
 preserveAspectRatio="xMidYMid meet">
<metadata>
Created by potrace 1.11, written by Peter Selinger 2001-2013
</metadata>
<g transform="translate(0.000000,260.000000) scale(0.100000,-0.100000)"
fill="#000000" stroke="none">
<path d="M980 2288 c-14 -5 -32 -11 -40 -13 -8 -1 -29 -9 -46 -16 l-31 -14 42
-128 43 -128 -32 -13 c-18 -8 -41 -16 -52 -19 -97 -28 -200 -61 -206 -66 -4
-4 1 -31 12 -61 11 -30 20 -62 20 -71 0 -9 7 -19 15 -23 11 -4 7 -14 -20 -43
-38 -41 -41 -53 -23 -71 9 -9 7 -12 -9 -12 -24 0 -64 -81 -87 -178 -17 -73
-16 -69 -16 -83 0 -5 -5 -7 -12 -3 -18 11 -218 14 -247 3 -14 -6 -29 -16 -33
-22 -4 -7 -8 -114 -8 -238 0 -198 2 -228 16 -240 11 -9 51 -14 123 -16 123 -2
203 18 235 61 l19 25 81 -83 c45 -45 95 -92 111 -104 72 -53 102 -72 138 -92
20 -11 37 -18 37 -16 0 3 16 -2 35 -10 19 -7 51 -16 72 -19 21 -4 44 -8 51
-10 19 -7 192 -7 222 -1 14 3 39 8 55 11 57 11 150 49 185 75 19 14 55 39 78
55 24 16 67 52 96 81 51 51 53 52 111 52 115 -1 146 14 136 65 l-7 32 -68 -4
-68 -3 23 31 c12 17 30 31 38 32 9 0 37 1 62 1 l47 0 -3 58 c-3 61 -13 88 -51
133 -13 15 -21 34 -18 41 3 8 -5 21 -18 30 l-22 16 27 1 c15 0 41 1 57 1 17 0
36 -1 43 -1 10 -1 13 -43 12 -193 -1 -248 -5 -241 145 -239 57 1 106 3 108 6
9 9 7 67 -3 75 -6 5 -40 10 -75 12 l-65 3 -3 169 c-2 167 -2 170 22 195 66 70
52 237 -26 307 -68 62 -148 89 -292 98 -65 4 -71 7 -114 48 -66 62 -68 64
-107 88 -20 12 -34 24 -32 26 2 2 24 5 50 7 161 14 112 131 -69 167 -44 9 -73
22 -100 45 -21 18 -51 36 -67 39 -86 17 -202 -8 -247 -52 -24 -25 -131 -69
-128 -53 1 3 -2 13 -5 21 -3 8 -21 64 -40 125 -19 60 -38 110 -43 111 -5 2
-20 -2 -34 -8z m-228 -670 c-7 -7 -12 -8 -12 -2 0 14 12 26 19 19 2 -3 -1 -11
-7 -17z m248 -18 c0 -5 -7 -7 -15 -4 -8 4 -15 8 -15 10 0 2 7 4 15 4 8 0 15
-4 15 -10z m-310 -336 c0 -8 -5 -12 -10 -9 -6 4 -8 11 -5 16 9 14 15 11 15 -7z
m-178 -28 c12 -18 9 -53 -6 -65 -7 -6 -41 -14 -74 -17 l-61 -5 0 55 c1 54 2
55 33 58 38 4 98 -10 108 -26z m557 -5 c-15 -5 -22 6 -14 19 6 9 10 9 16 -1 5
-8 4 -15 -2 -18z m461 19 c0 -12 -28 -25 -36 -17 -9 9 6 27 22 27 8 0 14 -5
14 -10z m-1027 -199 c29 -11 42 -41 33 -76 -7 -28 -51 -45 -116 -45 l-47 0 -2
65 -2 65 55 0 c30 0 66 -4 79 -9z m1097 -5 c0 -11 -19 -15 -25 -6 -3 5 1 10 9
10 9 0 16 -2 16 -4z m-465 -176 c3 -5 1 -10 -4 -10 -6 0 -11 5 -11 10 0 6 2
10 4 10 3 0 8 -4 11 -10z m-88 -96 c-3 -3 -12 -4 -19 -1 -8 3 -5 6 6 6 11 1
17 -2 13 -5z"/>
<path d="M894 409 c-2 -4 -4 -55 -3 -113 1 -104 1 -106 24 -106 20 0 23 5 23
36 0 19 2 38 5 41 13 12 44 -9 61 -42 14 -25 26 -35 43 -35 28 0 29 7 3 40
-24 31 -24 36 -1 68 10 15 17 35 15 45 -4 26 -32 67 -47 68 -55 5 -119 4 -123
-2z m114 -42 c18 -14 15 -45 -6 -56 -42 -22 -76 5 -64 52 5 19 45 21 70 4z"/>
<path d="M1399 403 c-1 -10 0 -29 1 -42 1 -19 -2 -22 -15 -17 -50 19 -64 18
-89 -8 -51 -51 -20 -146 48 -146 17 0 38 6 45 13 11 9 14 10 18 0 3 -7 14 -13
25 -13 18 0 20 4 14 31 -3 17 -6 69 -6 115 0 77 -2 84 -20 84 -12 0 -20 -7
-21 -17z m-9 -104 c14 -26 6 -65 -16 -73 -21 -8 -51 9 -59 34 -16 49 51 84 75
39z"/>
<path d="M1480 401 c0 -16 6 -21 24 -21 31 0 29 34 -2 38 -17 3 -22 -2 -22
-17z"/>
<path d="M1122 349 c-13 -5 -22 -14 -20 -20 4 -12 7 -12 45 -3 19 5 30 2 40
-11 19 -28 17 -31 -21 -27 -47 5 -76 -12 -76 -46 0 -16 5 -33 12 -40 16 -16
70 -15 87 1 11 10 14 10 18 0 3 -7 13 -13 24 -13 18 0 19 5 14 53 -10 84 -13
93 -40 105 -30 14 -51 14 -83 1z m76 -96 c5 -18 -45 -40 -60 -25 -6 6 -8 18
-4 27 7 19 57 17 64 -2z"/>
<path d="M1492 352 c-6 -4 -10 -40 -10 -85 1 -68 3 -77 20 -77 21 0 20 -5 23
87 1 71 -7 90 -33 75z"/>
<path d="M1588 340 c-67 -52 -32 -149 53 -150 43 0 77 32 83 77 8 69 -81 117
-136 73z m80 -32 c17 -17 15 -54 -4 -72 -20 -21 -30 -20 -54 4 -16 16 -18 24
-9 50 12 32 44 41 67 18z"/>
</g>
</svg>
